PathFileType	4	(X/Y/Z)	 staticP082.trc
DataRate	CameraRate	NumFrames	NumMarkers	Units	OrigDataRate	OrigDataStartFrame	OrigNumFrames
100	100	7	53	M	100	63	100
Frame#	Time	RM1D			RM5D			RM2B			LM1D			LM5D			LM2B			RCAL			LCAL			RLMAL			LLMAL			RMMAL			LMMAL			RSTL			LSTL			RFLE			RFME			LFME			LFLE			RHFIB			LHFIB			RTTUB			LTTUB			RSSH			LSSH			RTL			LTL			RTAP			RTAD			LTAP			LTAD			RTPP			RTPD			LTPP			LTPD			RPSIS			LPSIS			RASIS			LASIS			T10			T2			IJ			SA			RACR			LACR			RHLE			LHLE			RUSP			LUSP			RCB			LCB			IN			LHME			RHME			
		X1	Y1	Z1	X2	Y2	Z2	X3	Y3	Z3	X4	Y4	Z4	X5	Y5	Z5	X6	Y6	Z6	X7	Y7	Z7	X8	Y8	Z8	X9	Y9	Z9	X10	Y10	Z10	X11	Y11	Z11	X12	Y12	Z12	X13	Y13	Z13	X14	Y14	Z14	X15	Y15	Z15	X16	Y16	Z16	X17	Y17	Z17	X18	Y18	Z18	X19	Y19	Z19	X20	Y20	Z20	X21	Y21	Z21	X22	Y22	Z22	X23	Y23	Z23	X24	Y24	Z24	X25	Y25	Z25	X26	Y26	Z26	X27	Y27	Z27	X28	Y28	Z28	X29	Y29	Z29	X30	Y30	Z30	X31	Y31	Z31	X32	Y32	Z32	X33	Y33	Z33	X34	Y34	Z34	X35	Y35	Z35	X36	Y36	Z36	X37	Y37	Z37	X38	Y38	Z38	X39	Y39	Z39	X40	Y40	Z40	X41	Y41	Z41	X42	Y42	Z42	X43	Y43	Z43	X44	Y44	Z44	X45	Y45	Z45	X46	Y46	Z46	X47	Y47	Z47	X48	Y48	Z48	X49	Y49	Z49	X50	Y50	Z50	X51	Y51	Z51	X52	Y52	Z52	X53	Y53	Z53	
63	0.6300	-0.249120	0.039391	-0.202584	-0.282229	0.027698	-0.114437	-0.294599	0.058293	-0.165317	-0.262411	0.041159	-0.280797	-0.286253	0.024249	-0.369277	-0.294187	0.053698	-0.315901	-0.461277	0.049551	-0.174122	-0.467391	0.047740	-0.318355	-0.407940	0.072349	-0.129825	-0.407124	0.069450	-0.356571	-0.391106	0.084015	-0.213392	-0.400472	0.086511	-0.272390	-0.408703	0.047488	-0.208111	-0.418315	0.042855	-0.280144	-0.344422	0.470772	-0.088500	-0.373685	0.485623	-0.211944	-0.381918	0.468791	-0.271202	-0.328689	0.478247	-0.385874	-0.368681	0.422087	-0.075970	-0.364490	0.421672	-0.408029	-0.331899	0.402880	-0.154428	-0.327160	0.403730	-0.330845	-0.340047	0.317731	-0.156457	-0.349617	0.181631	-0.321417	-0.328751	0.700533	-0.044996	-0.323598	0.703306	-0.433200	-0.229323	0.768320	-0.128476	-0.247354	0.655365	-0.140150	-0.227280	0.760361	-0.346490	-0.248655	0.641515	-0.340425	-0.446596	0.691476	-0.135599	-0.442425	0.603280	-0.137173	-0.437162	0.698378	-0.367009	-0.435562	0.607993	-0.362384	-0.459514	1.029405	-0.202579	-0.461882	1.026170	-0.299240	-0.253746	0.982817	-0.116377	-0.258604	0.977144	-0.370414	-0.468322	1.220625	-0.248244	-0.442839	1.467728	-0.259130	-0.291449	1.410729	-0.240506	-0.271281	1.364369	-0.237537	-0.352551	1.463873	-0.045851	-0.315604	1.446768	-0.444301	-0.419159	1.132350	-0.021739	-0.374737	1.114565	-0.463285	-0.332391	0.896670	0.029450	-0.306699	0.885257	-0.506593	-0.244379	1.587128	-0.175992	-0.229986	1.581308	-0.308431	-0.397573	1.541939	-0.258587	-0.386306	1.122735	-0.390444	-0.420717	1.131133	-0.103888	
64	0.6400	-0.249116	0.039380	-0.202573	-0.282250	0.027698	-0.114434	-0.294599	0.058299	-0.165318	-0.262394	0.041159	-0.280806	-0.286246	0.024247	-0.369281	-0.294209	0.053695	-0.315898	-0.461316	0.049578	-0.174145	-0.467369	0.047726	-0.318370	-0.407958	0.072354	-0.129819	-0.407133	0.069430	-0.356576	-0.391122	0.084025	-0.213397	-0.400471	0.086530	-0.272398	-0.408688	0.047482	-0.208127	-0.418302	0.042834	-0.280149	-0.344433	0.470786	-0.088494	-0.373720	0.485627	-0.211948	-0.381960	0.468797	-0.271192	-0.328709	0.478235	-0.385875	-0.368693	0.422100	-0.075958	-0.364534	0.421679	-0.408022	-0.331906	0.402872	-0.154430	-0.327183	0.403740	-0.330855	-0.339996	0.317746	-0.156422	-0.349606	0.181622	-0.321419	-0.328754	0.700527	-0.045013	-0.323913	0.703327	-0.433148	-0.229357	0.768286	-0.128472	-0.247420	0.655326	-0.140134	-0.227356	0.760320	-0.346533	-0.248671	0.641559	-0.340436	-0.446603	0.691475	-0.135598	-0.442431	0.603272	-0.137164	-0.437198	0.698380	-0.366985	-0.435575	0.607983	-0.362349	-0.459530	1.029405	-0.202568	-0.461916	1.026180	-0.299235	-0.253747	0.982793	-0.116414	-0.258612	0.977143	-0.370401	-0.468328	1.220639	-0.248220	-0.442791	1.467746	-0.259126	-0.291315	1.410750	-0.240415	-0.271180	1.364382	-0.237463	-0.352493	1.463907	-0.045823	-0.315508	1.446778	-0.444278	-0.419196	1.132418	-0.021689	-0.374783	1.114588	-0.463302	-0.332471	0.896710	0.029604	-0.306769	0.885271	-0.506669	-0.244702	1.587076	-0.175696	-0.229714	1.581243	-0.308088	-0.397507	1.541980	-0.258714	-0.386350	1.122751	-0.390482	-0.420737	1.131165	-0.103820	
65	0.6500	-0.249131	0.039389	-0.202576	-0.282249	0.027700	-0.114432	-0.294614	0.058290	-0.165313	-0.262405	0.041139	-0.280808	-0.286230	0.024265	-0.369260	-0.294187	0.053691	-0.315897	-0.461272	0.049547	-0.174110	-0.467375	0.047738	-0.318363	-0.407937	0.072350	-0.129808	-0.407130	0.069430	-0.356580	-0.391154	0.084053	-0.213386	-0.400460	0.086503	-0.272397	-0.408721	0.047480	-0.208115	-0.418353	0.042855	-0.280188	-0.344454	0.470804	-0.088476	-0.373736	0.485606	-0.211938	-0.381937	0.468796	-0.271174	-0.328754	0.478242	-0.385884	-0.368717	0.422097	-0.075950	-0.364558	0.421689	-0.408022	-0.331902	0.402892	-0.154415	-0.327230	0.403723	-0.330868	-0.339995	0.317716	-0.156421	-0.349617	0.181648	-0.321407	-0.328798	0.700530	-0.045036	-0.323615	0.703317	-0.433235	-0.229374	0.768296	-0.128458	-0.247447	0.655328	-0.140130	-0.227376	0.760372	-0.346521	-0.248768	0.641502	-0.340468	-0.446616	0.691461	-0.135611	-0.442446	0.603275	-0.137178	-0.437222	0.698383	-0.366961	-0.435618	0.607994	-0.362330	-0.459533	1.029413	-0.202550	-0.461927	1.026181	-0.299218	-0.253756	0.982769	-0.116424	-0.258654	0.977128	-0.370423	-0.468323	1.220658	-0.248187	-0.442753	1.467742	-0.259122	-0.291271	1.410757	-0.240390	-0.271153	1.364451	-0.237416	-0.352489	1.463934	-0.045813	-0.315440	1.446754	-0.444233	-0.419261	1.132482	-0.021595	-0.374802	1.114599	-0.463348	-0.332546	0.896747	0.029741	-0.306850	0.885286	-0.506714	-0.245002	1.587105	-0.175400	-0.229450	1.581166	-0.307698	-0.397428	1.541997	-0.258838	-0.386376	1.122751	-0.390507	-0.420752	1.131207	-0.103748	
66	0.6600	-0.249148	0.039385	-0.202581	-0.282245	0.027711	-0.114438	-0.294591	0.058273	-0.165311	-0.262405	0.041145	-0.280801	-0.286222	0.024261	-0.369270	-0.294203	0.053695	-0.315905	-0.461281	0.049549	-0.174118	-0.467384	0.047729	-0.318367	-0.407968	0.072346	-0.129791	-0.407132	0.069441	-0.356570	-0.391108	0.084004	-0.213385	-0.400456	0.086507	-0.272400	-0.408723	0.047485	-0.208093	-0.418344	0.042859	-0.280148	-0.344461	0.470784	-0.088464	-0.373745	0.485611	-0.211940	-0.381957	0.468798	-0.271174	-0.328763	0.478247	-0.385882	-0.368710	0.422083	-0.075950	-0.364580	0.421686	-0.408024	-0.331909	0.402883	-0.154410	-0.327196	0.403770	-0.330867	-0.340042	0.317747	-0.156402	-0.349627	0.181647	-0.321436	-0.328810	0.700516	-0.045034	-0.323921	0.703331	-0.433145	-0.229325	0.768306	-0.128501	-0.247446	0.655310	-0.140134	-0.227382	0.760359	-0.346537	-0.248731	0.641538	-0.340467	-0.446625	0.691463	-0.135628	-0.442466	0.603260	-0.137169	-0.437262	0.698391	-0.366943	-0.435634	0.607986	-0.362295	-0.459531	1.029413	-0.202542	-0.461947	1.026191	-0.299189	-0.253724	0.982781	-0.116446	-0.258662	0.977138	-0.370419	-0.468327	1.220672	-0.248163	-0.442705	1.467741	-0.259133	-0.291307	1.410750	-0.240388	-0.271138	1.364420	-0.237437	-0.352471	1.463995	-0.045788	-0.315390	1.446798	-0.444251	-0.419277	1.132510	-0.021547	-0.374811	1.114611	-0.463402	-0.332648	0.896822	0.029949	-0.306930	0.885293	-0.506803	-0.245321	1.587064	-0.175035	-0.229147	1.581046	-0.307250	-0.397349	1.542018	-0.258981	-0.386383	1.122765	-0.390561	-0.420762	1.131226	-0.103663	
67	0.6700	-0.249138	0.039393	-0.202559	-0.282268	0.027708	-0.114419	-0.294618	0.058292	-0.165317	-0.262390	0.041147	-0.280814	-0.286245	0.024244	-0.369280	-0.294196	0.053696	-0.315894	-0.461287	0.049549	-0.174108	-0.467388	0.047730	-0.318356	-0.407984	0.072366	-0.129807	-0.407126	0.069449	-0.356564	-0.391157	0.084039	-0.213377	-0.400442	0.086509	-0.272405	-0.408726	0.047480	-0.208092	-0.418316	0.042843	-0.280157	-0.344473	0.470781	-0.088473	-0.373755	0.485617	-0.211935	-0.381970	0.468797	-0.271163	-0.328792	0.478275	-0.385885	-0.368739	0.422082	-0.075944	-0.364588	0.421699	-0.408020	-0.331932	0.402875	-0.154412	-0.327245	0.403751	-0.330853	-0.340026	0.317778	-0.156409	-0.349646	0.181634	-0.321402	-0.328832	0.700531	-0.045040	-0.323770	0.703343	-0.433183	-0.229377	0.768307	-0.128488	-0.247425	0.655326	-0.140135	-0.227419	0.760375	-0.346576	-0.248777	0.641534	-0.340493	-0.446634	0.691474	-0.135618	-0.442481	0.603266	-0.137164	-0.437298	0.698403	-0.366915	-0.435670	0.607997	-0.362272	-0.459550	1.029427	-0.202519	-0.461960	1.026204	-0.299174	-0.253723	0.982756	-0.116439	-0.258660	0.977158	-0.370394	-0.468319	1.220697	-0.248145	-0.442634	1.467757	-0.259142	-0.291278	1.410723	-0.240365	-0.271125	1.364466	-0.237425	-0.352447	1.464047	-0.045793	-0.315292	1.446789	-0.444212	-0.419324	1.132558	-0.021445	-0.374845	1.114654	-0.463471	-0.332673	0.896869	0.030146	-0.307033	0.885330	-0.506902	-0.245690	1.587047	-0.174672	-0.228876	1.580937	-0.306838	-0.397274	1.542034	-0.259103	-0.386424	1.122767	-0.390597	-0.420771	1.131265	-0.103580	
68	0.6800	-0.249136	0.039388	-0.202571	-0.282232	0.027701	-0.114428	-0.294611	0.058300	-0.165307	-0.262392	0.041147	-0.280794	-0.286217	0.024258	-0.369271	-0.294193	0.053706	-0.315881	-0.461271	0.049532	-0.174099	-0.467381	0.047738	-0.318346	-0.407975	0.072353	-0.129810	-0.407118	0.069445	-0.356553	-0.391136	0.084053	-0.213358	-0.400454	0.086525	-0.272390	-0.408713	0.047484	-0.208107	-0.418336	0.042857	-0.280137	-0.344494	0.470790	-0.088448	-0.373768	0.485651	-0.211928	-0.381974	0.468776	-0.271160	-0.328773	0.478281	-0.385882	-0.368759	0.422090	-0.075934	-0.364597	0.421702	-0.408015	-0.331944	0.402885	-0.154429	-0.327217	0.403773	-0.330836	-0.340049	0.317733	-0.156432	-0.349666	0.181644	-0.321394	-0.328839	0.700510	-0.045007	-0.323794	0.703333	-0.433185	-0.229433	0.768281	-0.128528	-0.247456	0.655317	-0.140118	-0.227421	0.760385	-0.346602	-0.248791	0.641549	-0.340510	-0.446647	0.691487	-0.135615	-0.442490	0.603274	-0.137172	-0.437336	0.698430	-0.366906	-0.435695	0.608005	-0.362263	-0.459564	1.029445	-0.202488	-0.461980	1.026212	-0.299159	-0.253723	0.982748	-0.116431	-0.258797	0.977130	-0.370428	-0.468324	1.220707	-0.248145	-0.442616	1.467780	-0.259165	-0.291175	1.410719	-0.240293	-0.271088	1.364385	-0.237387	-0.352430	1.464066	-0.045821	-0.315206	1.446781	-0.444201	-0.419376	1.132642	-0.021375	-0.374872	1.114691	-0.463541	-0.332748	0.896966	0.030363	-0.307081	0.885312	-0.506992	-0.246003	1.587071	-0.174325	-0.228607	1.580846	-0.306418	-0.397217	1.542048	-0.259239	-0.386438	1.122781	-0.390645	-0.420796	1.131296	-0.103498	
69	0.6900	-0.249155	0.039388	-0.202565	-0.282248	0.027715	-0.114435	-0.294597	0.058283	-0.165312	-0.262406	0.041154	-0.280801	-0.286243	0.024241	-0.369268	-0.294198	0.053709	-0.315883	-0.461300	0.049558	-0.174121	-0.467389	0.047751	-0.318360	-0.407975	0.072339	-0.129811	-0.407121	0.069454	-0.356575	-0.391131	0.084032	-0.213365	-0.400444	0.086527	-0.272392	-0.408714	0.047489	-0.208119	-0.418327	0.042853	-0.280146	-0.344502	0.470781	-0.088461	-0.373774	0.485629	-0.211932	-0.381964	0.468793	-0.271141	-0.328796	0.478271	-0.385870	-0.368764	0.422082	-0.075959	-0.364607	0.421714	-0.408006	-0.331977	0.402858	-0.154401	-0.327267	0.403765	-0.330837	-0.340023	0.317729	-0.156431	-0.349666	0.181641	-0.321417	-0.328874	0.700518	-0.045018	-0.323860	0.703362	-0.433209	-0.229441	0.768295	-0.128536	-0.247467	0.655310	-0.140105	-0.227502	0.760337	-0.346611	-0.248882	0.641516	-0.340544	-0.446656	0.691478	-0.135630	-0.442500	0.603264	-0.137176	-0.437384	0.698437	-0.366920	-0.435726	0.607986	-0.362273	-0.459571	1.029447	-0.202494	-0.462003	1.026239	-0.299148	-0.253768	0.982723	-0.116428	-0.258780	0.977152	-0.370410	-0.468313	1.220735	-0.248118	-0.442596	1.467793	-0.259179	-0.291203	1.410705	-0.240266	-0.271040	1.364382	-0.237353	-0.352428	1.464081	-0.045817	-0.315183	1.446861	-0.444231	-0.419423	1.132708	-0.021265	-0.374908	1.114710	-0.463591	-0.332810	0.897040	0.030594	-0.307148	0.885318	-0.507038	-0.246337	1.587088	-0.173994	-0.228300	1.580722	-0.305968	-0.397162	1.542059	-0.259375	-0.386490	1.122807	-0.390703	-0.420814	1.131318	-0.103393	
